<svg width="100" height="100" viewBox="0 0 100 100" fill="none" xmlns="http://www.w3.org/2000/svg">
<rect width="100" height="100" fill="#4F3D74"/>
<mask id="mask0_43_19" style="mask-type:alpha" maskUnits="userSpaceOnUse" x="0" y="0" width="100" height="100">
<rect width="100" height="100" rx="20" fill="#00497F"/>
</mask>
<g mask="url(#mask0_43_19)">
</g>
<path d="M49.9999 53.3333C48.611 53.3333 47.4305 52.8472 46.4583 51.875C45.486 50.9028 44.9999 49.7222 44.9999 48.3333V38.3333C44.9999 36.9444 45.486 35.7639 46.4583 34.7917C47.4305 33.8194 48.611 33.3333 49.9999 33.3333C51.3888 33.3333 52.5694 33.8194 53.5416 34.7917C54.5138 35.7639 54.9999 36.9444 54.9999 38.3333V48.3333C54.9999 49.7222 54.5138 50.9028 53.5416 51.875C52.5694 52.8472 51.3888 53.3333 49.9999 53.3333ZM48.3333 65V59.875C45.4444 59.4861 43.0555 58.1944 41.1666 56C39.2777 53.8056 38.3333 51.25 38.3333 48.3333H41.6666C41.6666 50.6389 42.4791 52.6042 44.1041 54.2292C45.7291 55.8542 47.6944 56.6667 49.9999 56.6667C52.3055 56.6667 54.2708 55.8542 55.8958 54.2292C57.5208 52.6042 58.3333 50.6389 58.3333 48.3333H61.6666C61.6666 51.25 60.7221 53.8056 58.8333 56C56.9444 58.1944 54.5555 59.4861 51.6666 59.875V65H48.3333ZM49.9999 50C50.4721 50 50.868 49.8403 51.1874 49.5208C51.5069 49.2014 51.6666 48.8056 51.6666 48.3333V38.3333C51.6666 37.8611 51.5069 37.4653 51.1874 37.1458C50.868 36.8264 50.4721 36.6667 49.9999 36.6667C49.5277 36.6667 49.1319 36.8264 48.8124 37.1458C48.493 37.4653 48.3333 37.8611 48.3333 38.3333V48.3333C48.3333 48.8056 48.493 49.2014 48.8124 49.5208C49.1319 49.8403 49.5277 50 49.9999 50Z" fill="#EBDDFF"/>
</svg>
