<svg width="100" height="100" viewBox="0 0 100 100" fill="none" xmlns="http://www.w3.org/2000/svg">
<path d="M48 0.5H52C60.409 0.5 66.6857 0.500389 71.6632 0.907065C76.6349 1.31326 80.2663 2.12231 83.3927 3.71531C88.9435 6.54357 93.4564 11.0565 96.2847 16.6073C97.8777 19.7337 98.6867 23.3651 99.0929 28.3368C99.4996 33.3143 99.5 39.591 99.5 48V52C99.5 60.409 99.4996 66.6857 99.0929 71.6632C98.6867 76.6349 97.8777 80.2663 96.2847 83.3927C93.4564 88.9435 88.9435 93.4564 83.3927 96.2847C80.2663 97.8777 76.6349 98.6867 71.6632 99.0929C66.6857 99.4996 60.409 99.5 52 99.5H48C39.591 99.5 33.3143 99.4996 28.3368 99.0929C23.3651 98.6867 19.7337 97.8777 16.6073 96.2847C11.0565 93.4564 6.54357 88.9435 3.71531 83.3927C2.12231 80.2663 1.31326 76.6349 0.907065 71.6632C0.500389 66.6857 0.5 60.409 0.5 52V48C0.5 39.591 0.500389 33.3143 0.907065 28.3368C1.31326 23.3651 2.12231 19.7337 3.71531 16.6073C6.54357 11.0565 11.0565 6.54357 16.6073 3.71531C19.7337 2.12231 23.3651 1.31326 28.3368 0.907065C33.3143 0.500389 39.591 0.5 48 0.5Z" fill="#4F3D74" stroke="#D3BCFD"/>
<mask id="mask0_43_14" style="mask-type:alpha" maskUnits="userSpaceOnUse" x="0" y="0" width="100" height="100">
<path d="M0 48C0 31.1984 0 22.7976 3.2698 16.3803C6.14601 10.7354 10.7354 6.14601 16.3803 3.2698C22.7976 0 31.1984 0 48 0H52C68.8016 0 77.2024 0 83.6197 3.2698C89.2646 6.14601 93.854 10.7354 96.7302 16.3803C100 22.7976 100 31.1984 100 48V52C100 68.8016 100 77.2024 96.7302 83.6197C93.854 89.2646 89.2646 93.854 83.6197 96.7302C77.2024 100 68.8016 100 52 100H48C31.1984 100 22.7976 100 16.3803 96.7302C10.7354 93.854 6.14601 89.2646 3.2698 83.6197C0 77.2024 0 68.8016 0 52V48Z" fill="#00497F"/>
</mask>
<g mask="url(#mask0_43_14)">
</g>
<path d="M50 53.3333C48.6112 53.3333 47.4306 52.8472 46.4584 51.875C45.4862 50.9028 45 49.7222 45 48.3333V38.3333C45 36.9444 45.4862 35.7639 46.4584 34.7917C47.4306 33.8194 48.6112 33.3333 50 33.3333C51.3889 33.3333 52.5695 33.8194 53.5417 34.7917C54.5139 35.7639 55 36.9444 55 38.3333V48.3333C55 49.7222 54.5139 50.9028 53.5417 51.875C52.5695 52.8472 51.3889 53.3333 50 53.3333ZM48.3334 65V59.875C45.4445 59.4861 43.0556 58.1944 41.1667 56C39.2778 53.8056 38.3334 51.25 38.3334 48.3333H41.6667C41.6667 50.6389 42.4792 52.6042 44.1042 54.2292C45.7292 55.8542 47.6945 56.6667 50 56.6667C52.3056 56.6667 54.2709 55.8542 55.8959 54.2292C57.5209 52.6042 58.3334 50.6389 58.3334 48.3333H61.6667C61.6667 51.25 60.7223 53.8056 58.8334 56C56.9445 58.1944 54.5556 59.4861 51.6667 59.875V65H48.3334ZM50 50C50.4723 50 50.8681 49.8403 51.1875 49.5208C51.507 49.2014 51.6667 48.8056 51.6667 48.3333V38.3333C51.6667 37.8611 51.507 37.4653 51.1875 37.1458C50.8681 36.8264 50.4723 36.6667 50 36.6667C49.5278 36.6667 49.132 36.8264 48.8125 37.1458C48.4931 37.4653 48.3334 37.8611 48.3334 38.3333V48.3333C48.3334 48.8056 48.4931 49.2014 48.8125 49.5208C49.132 49.8403 49.5278 50 50 50Z" fill="#EBDDFF"/>
</svg>
